<svg id="visual" viewBox="0 0 900 600" width="900" height="600" xmlns="http://www.w3.org/2000/svg" xmlns:xlink="http://www.w3.org/1999/xlink" version="1.1"><path d="M0 79L82 73L164 61L245 67L327 73L409 55L491 67L573 115L655 85L736 79L818 43L900 97L900 0L818 0L736 0L655 0L573 0L491 0L409 0L327 0L245 0L164 0L82 0L0 0Z" fill="#000000"></path><path d="M0 181L82 301L164 325L245 319L327 217L409 181L491 223L573 307L655 229L736 211L818 169L900 223L900 95L818 41L736 77L655 83L573 113L491 65L409 53L327 71L245 65L164 59L82 71L0 77Z" fill="#060606"></path><path d="M0 421L82 415L164 421L245 451L327 439L409 409L491 451L573 451L655 475L736 403L818 421L900 415L900 221L818 167L736 209L655 227L573 305L491 221L409 179L327 215L245 317L164 323L82 299L0 179Z" fill="#0b0b0b"></path><path d="M0 547L82 553L164 523L245 547L327 535L409 505L491 505L573 547L655 529L736 511L818 499L900 559L900 413L818 419L736 401L655 473L573 449L491 449L409 407L327 437L245 449L164 419L82 413L0 419Z" fill="#0f0f0f"></path><path d="M0 601L82 601L164 601L245 601L327 601L409 601L491 601L573 601L655 601L736 601L818 601L900 601L900 557L818 497L736 509L655 527L573 545L491 503L409 503L327 533L245 545L164 521L82 551L0 545Z" fill="#131313"></path></svg>